<svg width="691" height="1585" viewBox="0 0 691 1585" fill="none" xmlns="http://www.w3.org/2000/svg">
<path d="M357.997 0C381.672 0 405.244 6.04665 428.304 14.4497C550.689 59.066 609.778 182.97 619.826 306.112C627.199 396.441 607.629 492.602 556.781 568.452C508.533 640.433 431.424 684.435 343.696 683.797C247.186 683.093 168.269 630.437 121.207 548.066C62.8228 445.881 54.353 315.648 90.7441 204.408C102.296 169.099 118.925 136.272 140.71 106.491C166.668 71.0037 199.984 42.8527 239.435 23.6382C255.197 15.9614 271.388 10.6409 287.897 6.83953C308.32 2.15634 329.238 0 350.187 0H357.99H357.997Z" fill="white"/>
<path d="M367.349 1584.69L367.089 1256.3C392.35 1248.27 411.483 1228.46 418.249 1202.85C424.77 1178.16 417.426 1152.28 400.272 1133.83C383.503 1115.79 358.575 1106.67 333.707 1110.92C299.22 1116.89 273.796 1145.16 271.269 1178.98C268.668 1213.75 290.573 1245.68 324.377 1256.29L324.155 1584.63L161.385 1309.6L0 1036.79L101.667 791.318L199.161 840.729L345.593 791.378L491.876 840.781L589.081 791.622L691 1037.01L630.511 1139.3L491.668 1374.36L367.341 1584.68L367.349 1584.69Z" fill="white"/>
<path d="M470.764 684.953L489.163 797.995L345.511 749.525L201.807 798.069L220.147 684.938L277.975 704.049C300.265 709.481 321.895 713.579 344.822 714.32C366.252 714.134 386.215 710.414 407.163 705.761C428.445 699.966 448.356 693.297 470.757 684.961L470.764 684.953Z" fill="white"/>
<path d="M296.108 1199.7C289.891 1179.98 296.367 1160.07 310.639 1146.68C324.733 1133.45 345.652 1128.94 364.192 1136.2C387.185 1145.21 400.561 1168.28 397.152 1192.15C393.825 1215.46 374.373 1234.03 351.15 1236.3C326.563 1238.71 303.755 1223.96 296.108 1199.7Z" fill="white"/>
</svg>
